####
#
# OBJ File Generated by Meshlab
#
####
# Object CapsuleLowRes.obj
#
# Vertices: 52
# Faces: 100
#
####
vn 0.246042 0.932534 -0.264281
v 1.678853 0.967244 -0.271521
vn 0.137924 0.917657 0.372670
v 1.631711 0.929330 0.388487
vn 0.109061 0.993091 0.043314
v 1.580265 1.002239 0.066106
vn -0.163323 0.976227 0.142504
v -1.570890 0.995795 0.114839
vn -0.208982 0.956925 -0.201548
v -1.723196 0.971278 -0.254345
vn 0.214430 -0.974550 0.065365
v 1.741136 -0.998856 0.100839
vn 0.112235 -0.882147 -0.457406
v 1.533131 -0.921748 -0.424337
vn 0.285980 -0.926086 -0.246132
v 1.739120 -0.981449 -0.197585
vn -0.163621 -0.911126 -0.378256
v -1.628146 -0.920148 -0.399959
vn -0.110462 -0.984569 -0.135730
v -1.637574 -0.996210 -0.082724
vn -0.226485 -0.952666 0.202809
v -1.724323 -0.983715 0.186398
vn -0.517698 -0.820174 -0.243524
v -2.051750 -0.825908 -0.250141
vn 0.944631 -0.022543 -0.327360
v 2.469303 0.059203 -0.406456
vn 0.649155 0.637353 -0.415186
v 2.246613 0.590385 -0.420126
vn 0.918790 0.386200 0.081703
v 2.435875 0.457902 0.081999
vn 0.915407 -0.243916 0.320212
v 2.430308 -0.304741 0.354904
vn -0.993313 0.011181 0.114906
v -2.527282 -0.121262 0.164396
vn -0.763490 0.194220 -0.615923
v -2.337762 0.213572 -0.607395
vn -0.201314 -0.470529 0.859113
v -1.716447 -0.425472 0.907360
vn 0.125957 -0.270120 0.954552
v 1.608259 -0.211346 0.978368
vn 0.523399 -0.232226 0.819832
v 2.105005 -0.070096 0.852540
vn -0.179273 -0.761924 0.622360
v -1.719203 -0.776518 0.644667
vn 0.164124 -0.534263 0.829232
v 1.627909 -0.600237 0.812517
vn -0.350748 0.452426 0.819931
v -1.804754 0.526874 0.856343
vn 0.191142 0.107381 0.975671
v 1.713602 0.084311 1.004276
vn -0.084236 0.193603 0.977457
v -1.586062 0.108460 1.001368
vn -0.175688 0.865545 0.469006
v -1.668424 0.894349 0.464254
vn 0.190250 0.609161 0.769888
v 1.649984 0.625137 0.798611
vn -0.232860 0.054160 -0.971001
v -1.712185 0.081883 -0.999661
vn 0.089235 0.286852 -0.953810
v 1.641595 0.298599 -0.961062
vn -0.200943 0.427757 -0.881275
v -1.689187 0.480586 -0.877547
vn 0.196674 0.761304 -0.617847
v 1.600001 0.792932 -0.622274
vn 0.126171 0.573128 -0.809694
v 1.538195 0.559749 -0.831782
vn -0.280049 0.700912 -0.655968
v -1.790333 0.755838 -0.661115
vn 0.256323 -0.446611 -0.857226
v 1.682995 -0.476785 -0.889618
vn -0.109412 -0.412866 -0.904196
v -1.543700 -0.389663 -0.944099
vn 0.114895 -0.098356 -0.988496
v 1.653077 -0.128631 -0.991910
vn 0.130691 -0.727075 -0.674005
v 1.528295 -0.767255 -0.648117
vn 0.684644 0.356021 0.636012
v 2.270768 0.316145 0.661273
vn 0.508803 0.838455 0.195223
v 2.047287 0.863487 0.155840
vn -0.661871 0.695811 0.278880
v -2.236510 0.683269 0.278650
vn -0.767362 0.071464 0.637219
v -2.320693 0.083935 0.618917
vn 0.483081 0.190644 -0.854569
v 2.007120 0.176456 -0.912729
vn -0.769361 0.600784 -0.217122
v -2.322267 0.624830 -0.235356
vn 0.365320 -0.790355 0.491813
v 1.865242 -0.881064 0.486976
vn 0.735841 -0.675366 -0.049179
v 2.274410 -0.682697 -0.049800
vn -0.305442 -0.137378 0.942249
v -1.799415 -0.211470 0.975405
vn -0.675625 -0.585005 0.448665
v -2.204470 -0.639740 0.441997
vn 0.561439 -0.593630 -0.576532
v 2.194671 -0.550052 -0.552820
vn -0.568970 -0.386590 -0.725824
v -2.130113 -0.364414 -0.740539
vn -0.200182 -0.738716 -0.643604
v -1.712130 -0.741482 -0.663162
vn -0.882569 -0.415445 -0.220176
v -2.430283 -0.415398 -0.212857
# 52 vertices, 0 vertices normals

f 3//3 40//40 1//1
f 5//5 1//1 32//32
f 1//1 5//5 3//3
f 2//2 40//40 3//3
f 40//40 15//15 14//14
f 41//41 4//4 5//5
f 41//41 5//5 44//44
f 2//2 4//4 27//27
f 41//41 27//27 4//4
f 3//3 4//4 2//2
f 34//34 5//5 32//32
f 3//3 5//5 4//4
f 49//49 46//46 8//8
f 6//6 8//8 46//46
f 11//11 6//6 45//45
f 8//8 6//6 10//10
f 6//6 46//46 45//45
f 10//10 11//11 12//12
f 12//12 11//11 48//48
f 7//7 10//10 9//9
f 9//9 51//51 7//7
f 7//7 8//8 10//10
f 10//10 12//12 9//9
f 11//11 45//45 22//22
f 48//48 11//11 22//22
f 6//6 11//11 10//10
f 48//48 52//52 12//12
f 14//14 15//15 13//13
f 46//46 13//13 16//16
f 13//13 46//46 49//49
f 13//13 49//49 43//43
f 16//16 15//15 39//39
f 15//15 16//16 13//13
f 21//21 16//16 39//39
f 17//17 48//48 42//42
f 41//41 17//17 42//42
f 17//17 41//41 44//44
f 17//17 18//18 52//52
f 50//50 52//52 18//18
f 17//17 44//44 18//18
f 20//20 19//19 23//23
f 25//25 47//47 20//20
f 19//19 20//20 47//47
f 25//25 26//26 47//47
f 25//25 20//20 21//21
f 21//21 20//20 23//23
f 22//22 23//23 19//19
f 23//23 22//22 45//45
f 23//23 45//45 21//21
f 26//26 28//28 24//24
f 25//25 28//28 26//26
f 26//26 24//24 47//47
f 42//42 47//47 24//24
f 39//39 28//28 25//25
f 39//39 25//25 21//21
f 28//28 27//27 24//24
f 27//27 28//28 2//2
f 31//31 30//30 29//29
f 30//30 31//31 33//33
f 37//37 30//30 43//43
f 29//29 30//30 37//37
f 29//29 18//18 31//31
f 33//33 34//34 32//32
f 33//33 31//31 34//34
f 32//32 43//43 33//33
f 30//30 33//33 43//43
f 36//36 29//29 37//37
f 36//36 37//37 35//35
f 29//29 50//50 18//18
f 36//36 50//50 29//29
f 35//35 37//37 43//43
f 38//38 36//36 35//35
f 36//36 38//38 51//51
f 38//38 35//35 49//49
f 7//7 51//51 38//38
f 50//50 36//36 51//51
f 40//40 28//28 39//39
f 2//2 28//28 40//40
f 40//40 39//39 15//15
f 41//41 24//24 27//27
f 41//41 42//42 24//24
f 13//13 43//43 14//14
f 32//32 1//1 14//14
f 14//14 43//43 32//32
f 14//14 1//1 40//40
f 44//44 34//34 18//18
f 34//34 31//31 18//18
f 34//34 44//44 5//5
f 45//45 16//16 21//21
f 46//46 16//16 45//45
f 48//48 19//19 47//47
f 19//19 48//48 22//22
f 42//42 48//48 47//47
f 17//17 52//52 48//48
f 7//7 38//38 49//49
f 49//49 8//8 7//7
f 43//43 49//49 35//35
f 12//12 52//52 50//50
f 50//50 51//51 12//12
f 51//51 9//9 12//12
# 100 faces, 0 coords texture

# End of File
