####
#
# OBJ File Generated by Meshlab
#
####
# Object NoiseSphere2.obj
#
# Vertices: 152
# Faces: 300
#
####
vn 0.056210 0.996182 0.066803
v 0.201528 2.823025 0.015975
vn 0.231152 0.948026 -0.218670
v 1.000797 2.807514 -0.703627
vn 0.109860 0.971721 -0.209020
v 0.170276 3.042561 -1.010440
vn 0.087642 0.950664 0.297584
v 0.759596 2.736333 0.872317
vn 0.556647 0.830423 -0.023296
v 1.550391 2.808702 -0.172210
vn 0.732545 0.670900 0.115202
v 2.272339 1.950404 -0.138265
vn 0.625962 0.751975 0.206650
v 1.699241 2.115951 0.830814
vn 0.212016 0.960229 0.181684
v 1.134135 2.976413 -0.010166
vn -0.405092 0.914250 0.006834
v -1.308709 2.802475 -0.146676
vn -0.325634 0.889680 -0.320050
v -0.884637 2.934242 -1.047663
vn -0.295046 0.892684 0.340680
v -1.327334 2.526968 0.353515
vn -0.151826 0.946156 0.285898
v -0.620257 2.823327 0.360415
vn -0.189454 0.877198 0.441171
v -0.223753 2.501500 1.363593
vn -0.170713 0.977854 0.121072
v -0.757743 2.926596 0.103549
vn -0.602912 0.736128 -0.307593
v -1.440114 2.484936 -0.708577
vn -0.634090 0.772281 0.038901
v -2.107390 2.327320 0.272731
vn -0.865892 0.490125 -0.100049
v -2.554303 1.716349 -0.464250
vn -0.029468 -0.995256 -0.092723
v 0.172218 -3.159461 -1.003146
vn 0.263680 -0.958927 -0.104555
v 1.203253 -2.734540 -0.389270
vn 0.604796 -0.663068 -0.441093
v 1.866765 -2.180923 -0.860488
vn 0.057123 -0.993104 0.102379
v 0.380944 -2.832320 0.468666
vn 0.231364 -0.963962 0.131330
v 0.992906 -2.951985 0.996506
vn 0.377322 -0.770358 -0.513981
v 0.980942 -2.740537 -1.319002
vn 0.648839 -0.760889 0.007480
v 1.645787 -2.842244 0.013497
vn 0.734029 -0.678768 0.021808
v 2.093429 -2.027035 -0.147377
vn 0.712448 -0.670135 0.208176
v 1.639611 -2.328449 0.471738
vn -0.112620 -0.989839 0.086807
v -1.136448 -2.967642 0.415590
vn -0.643510 -0.752699 0.139068
v -1.488563 -2.881129 0.138656
vn -0.179674 -0.978776 -0.098561
v -1.244633 -2.496048 -0.668897
vn -0.202808 -0.868231 -0.452818
v -0.766118 -2.745669 -1.444461
vn -0.180115 -0.983084 -0.033223
v -0.444478 -2.905765 0.045969
vn -0.367978 -0.871641 -0.323780
v -1.730737 -2.690221 -0.844084
vn -0.851684 -0.505315 -0.138894
v -2.206027 -2.284235 -0.620104
vn 0.928192 -0.336020 -0.159841
v 2.909618 -0.618491 -0.795497
vn 0.955484 0.011779 -0.294809
v 2.846535 0.045541 -1.287462
vn 0.838883 0.372075 -0.397285
v 2.773096 1.015406 -1.482517
vn 0.960674 0.277536 -0.008925
v 2.680932 0.714646 -0.779300
vn 0.983266 0.179221 0.032687
v 3.192279 0.066028 -0.255829
vn 0.874238 -0.484658 0.028549
v 2.633515 -1.514633 -0.148236
vn 0.953785 -0.251072 -0.165097
v 2.684461 -0.572380 -1.105308
vn 0.659685 -0.050632 -0.749834
v 2.354788 0.026669 -2.365898
vn 0.904478 0.146418 0.400600
v 2.810205 -0.255133 1.423502
vn 0.935894 -0.321004 0.145114
v 2.892703 -0.645106 0.625201
vn 0.938793 0.296044 0.176140
v 2.685391 0.471791 0.194982
vn 0.964925 0.260658 0.031246
v 2.712672 1.413598 0.361161
vn 0.677676 0.256357 0.689229
v 2.034923 0.403285 2.424911
vn 0.735988 -0.352570 0.577942
v 2.253562 -1.350627 1.983427
vn 0.908216 0.213401 0.360004
v 2.503630 0.547813 1.414334
vn -0.914937 -0.011279 0.403439
v -3.227541 -0.076669 0.827311
vn -0.915069 0.347709 0.204320
v -2.992998 0.744710 0.932420
vn -0.916921 -0.397100 -0.039583
v -3.101326 -0.834104 0.105557
vn -0.674279 -0.070714 0.735083
v -2.302550 0.123288 1.908049
vn -0.885519 -0.035852 -0.463217
v -2.924638 0.146059 -1.238469
vn -0.839862 0.335720 -0.426526
v -2.738185 0.799717 -1.618780
vn -0.873884 -0.420541 -0.243869
v -2.977308 -0.798524 -0.840379
vn -0.983507 0.141259 -0.112957
v -3.145921 -0.005206 -0.423222
vn -0.723667 -0.286808 -0.627731
v -2.765785 -0.513408 -1.471286
vn -0.931920 0.344250 -0.114095
v -2.811232 0.807076 -0.439424
vn -0.687005 0.577318 -0.441281
v -2.339606 1.467753 -1.320090
vn -0.940159 0.331806 -0.077494
v -2.956555 0.481762 0.269245
vn -0.686956 -0.085305 -0.721675
v -2.302555 0.281211 -1.898667
vn 0.014008 -0.328088 0.944543
v -0.003916 -0.697672 3.052275
vn 0.241925 -0.296407 0.923913
v 0.663077 -0.968591 2.578911
vn 0.077609 -0.300003 0.950776
v 0.233705 -1.120491 2.656081
vn 0.379325 -0.239112 0.893834
v 1.574946 -0.517829 2.720806
vn -0.490575 -0.123400 0.862617
v -1.360429 -1.038232 2.753701
vn -0.738071 -0.238813 0.631047
v -1.807669 -1.355906 2.189356
vn -0.237343 -0.348190 0.906880
v -0.960690 -1.316830 2.447600
vn -0.147019 -0.505003 0.850504
v -0.561669 -2.180995 2.514779
vn 0.207919 -0.485423 0.849197
v 0.738297 -2.213232 2.248952
vn 0.071042 0.477946 0.875511
v 0.431068 0.917266 2.792639
vn -0.223038 0.458815 0.860083
v -0.318228 0.882516 2.822460
vn -0.233513 0.086006 0.968543
v -0.492498 -0.096878 2.850204
vn 0.078196 0.006557 0.996917
v 0.221370 0.030311 3.056675
vn 0.018896 0.449959 0.892849
v 0.059531 1.416543 2.414747
vn -0.431284 0.166641 0.886693
v -0.876821 0.713903 2.725006
vn -0.489717 0.503990 0.711457
v -1.583868 0.827258 2.239717
vn 0.248125 0.064764 0.966561
v 1.067195 0.497274 2.942844
vn 0.356649 0.624973 0.694414
v 1.095422 1.040694 2.503497
vn 0.255910 0.596141 -0.761003
v 0.938155 1.275631 -2.674629
vn 0.173886 0.530336 -0.829763
v 0.270224 1.674231 -2.386078
vn -0.170994 0.319869 -0.931904
v -0.191245 0.832083 -2.786792
vn -0.393202 0.191696 -0.899247
v -0.303548 0.053599 -3.039563
vn 0.234881 0.113402 -0.965386
v 0.517268 0.511330 -3.115954
vn 0.542996 0.309256 -0.780715
v 1.571481 0.879014 -2.391352
vn -0.176473 0.406600 -0.896400
v -0.509527 1.181008 -2.843094
vn -0.129099 -0.201046 -0.971038
v -0.299273 -0.395462 -3.047207
vn 0.253620 -0.320922 -0.912516
v 0.753033 -1.042735 -2.938972
vn -0.128352 -0.305643 -0.943456
v -0.634379 -1.391244 -2.626108
vn 0.139243 -0.699674 -0.700763
v 0.097670 -2.035564 -2.462190
vn -0.482665 -0.094248 -0.870719
v -1.455058 -0.958119 -2.565835
vn 0.549887 0.008374 -0.835197
v 1.123563 -0.137112 -2.672521
vn 0.136625 -0.756783 -0.639229
v -0.069917 -2.598699 -1.399054
vn -0.335172 -0.586175 -0.737603
v -0.927223 -1.886828 -2.527137
vn 0.366928 0.329133 0.870078
v 1.616029 1.248168 2.047551
vn 0.646228 0.560499 0.517910
v 1.956944 2.033655 1.739286
vn 0.267165 0.816915 0.511148
v 0.873177 2.505640 1.697595
vn -0.005276 0.560393 0.828210
v 0.519521 2.242831 2.317916
vn 0.496429 0.847321 0.188694
v 1.323252 2.282856 1.201372
vn 0.696885 0.360289 0.620115
v 1.976265 1.131823 1.769939
vn 0.866392 0.447066 0.222480
v 2.473830 1.449830 1.007563
vn -0.564825 0.452365 0.690173
v -1.771308 1.169217 1.618965
vn -0.476101 0.680228 0.557331
v -1.790794 2.196024 1.118506
vn -0.358871 0.728145 0.583966
v -1.124433 2.189682 1.553467
vn -0.314877 0.584453 0.747842
v -0.708638 1.745302 1.932251
vn -0.728508 0.512535 0.454515
v -2.497488 1.560342 0.962528
vn -0.645473 0.359319 0.673984
v -2.394608 0.459690 1.664166
vn 0.498153 0.626724 -0.599217
v 2.015428 1.818626 -1.377322
vn 0.575584 0.694450 -0.431789
v 1.799153 2.458464 -0.975213
vn 0.456196 0.579686 -0.675167
v 1.289448 1.754913 -1.661854
vn 0.349290 0.776802 -0.523999
v 0.719643 2.419817 -1.627082
vn -0.024006 0.751238 -0.659595
v -0.110937 2.412224 -1.892713
vn 0.310378 0.537082 -0.784352
v 0.755926 2.128257 -2.171046
vn 0.868797 0.476060 -0.136230
v 2.481189 1.577536 -0.701596
vn 0.310530 0.169014 -0.935417
v 1.790363 0.265247 -2.167909
vn 0.423073 0.425615 -0.799913
v 1.974564 1.056217 -2.020857
vn -0.300313 0.687141 -0.661550
v -0.847543 2.336285 -1.774561
vn -0.069480 0.598300 -0.798254
v -0.121228 2.001346 -2.064440
vn -0.553730 0.751163 -0.359356
v -1.249773 2.300064 -1.120908
vn -0.529597 0.208860 -0.822134
v -1.789670 0.490025 -2.442456
vn -0.505401 0.511133 -0.695207
v -1.480506 1.758080 -2.173548
vn -0.384259 0.101447 -0.917635
v -1.351941 0.385840 -2.400327
vn -0.558763 0.744351 -0.365685
v -2.023850 2.029149 -0.690057
vn 0.718611 -0.680036 0.145426
v 1.879269 -2.227653 0.925423
vn 0.866939 -0.192343 0.459806
v 2.499535 -0.575790 1.360784
vn -0.095240 -0.891776 0.442341
v 0.571069 -2.740192 1.553824
vn 0.473891 -0.622397 0.622936
v 1.441934 -2.357344 1.932008
vn 0.872338 -0.428486 0.235428
v 2.530634 -1.267168 1.227929
vn 0.338811 -0.335294 0.879082
v 1.422929 -0.940169 2.433497
vn 0.722539 -0.207200 0.659549
v 2.053856 -0.412892 2.172132
vn -0.681683 -0.239354 0.691388
v -2.246649 -0.859750 1.399632
vn -0.697760 -0.536816 0.474299
v -1.764481 -1.914430 1.274972
vn -0.815400 -0.541085 0.205789
v -1.526427 -2.495046 0.923101
vn -0.044237 -0.933209 0.356602
v -0.520350 -2.715950 1.074047
vn -0.087487 -0.934684 0.344546
v -0.400020 -2.097347 2.042928
vn -0.340822 -0.819618 0.460507
v -1.478149 -2.444210 1.836428
vn -0.769710 -0.299552 0.563752
v -1.629936 -0.660438 2.073689
vn -0.709970 -0.689072 0.145336
v -2.571991 -1.653620 0.595854
vn -0.741339 -0.390975 0.545486
v -2.913577 -0.875778 1.159871
vn -0.728814 -0.661718 0.175953
v -2.108502 -1.801915 0.726768
vn 0.595510 -0.487325 -0.638657
v 1.170462 -1.242547 -2.419824
vn 0.540981 -0.511435 -0.667663
v 2.170467 -1.333981 -1.531307
vn 0.421953 -0.647840 -0.634238
v 1.167287 -2.054790 -1.822765
vn 0.562771 -0.392076 -0.727712
v 1.506864 -0.657782 -2.407072
vn 0.214642 0.182677 -0.959457
v 1.841081 -0.496035 -2.422551
vn 0.732664 -0.384396 -0.561643
v 2.702118 -0.804224 -1.386414
vn 0.806625 -0.539993 -0.240339
v 2.589947 -1.576827 -0.972152
vn -0.695389 -0.382740 -0.608231
v -1.588911 -1.590659 -2.005599
vn -0.613209 -0.561751 -0.555347
v -1.667712 -1.963688 -1.752681
vn -0.800086 -0.463507 -0.380820
v -2.352064 -1.403452 -1.087202
vn -0.805394 -0.592739 0.000366
v -2.390135 -1.605701 -0.048456
vn -0.604192 -0.152451 -0.782119
v -1.832760 -0.580617 -2.236391
# 152 vertices, 0 vertices normals

f 2//2 1//1 8//8
f 99//99 8//8 4//4
f 2//2 8//8 5//5
f 111//111 3//3 2//2
f 112//112 3//3 111//111
f 3//3 1//1 2//2
f 99//99 4//4 97//97
f 4//4 8//8 12//12
f 1//1 12//12 8//8
f 6//6 109//109 5//5
f 99//99 7//7 8//8
f 8//8 7//7 5//5
f 5//5 7//7 6//6
f 9//9 11//11 14//14
f 1//1 14//14 12//12
f 11//11 12//12 14//14
f 14//14 15//15 9//9
f 16//16 9//9 15//15
f 15//15 14//14 10//10
f 12//12 104//104 13//13
f 13//13 4//4 12//12
f 12//12 11//11 104//104
f 3//3 10//10 14//14
f 112//112 10//10 3//3
f 15//15 10//10 117//117
f 3//3 14//14 1//1
f 16//16 123//123 17//17
f 16//16 11//11 9//9
f 103//103 11//11 16//16
f 15//15 123//123 16//16
f 19//19 24//24 22//22
f 19//19 22//22 21//21
f 21//21 18//18 19//19
f 19//19 23//23 20//20
f 19//19 20//20 24//24
f 18//18 23//23 19//19
f 26//26 22//22 24//24
f 134//134 22//22 126//126
f 134//134 21//21 22//22
f 126//126 22//22 127//127
f 18//18 21//21 31//31
f 26//26 25//25 124//124
f 24//24 25//25 26//26
f 25//25 24//24 20//20
f 29//29 31//31 27//27
f 27//27 28//28 29//29
f 28//28 27//27 133//133
f 29//29 28//28 32//32
f 93//93 18//18 30//30
f 30//30 18//18 29//29
f 31//31 29//29 18//18
f 30//30 29//29 32//32
f 135//135 134//134 126//126
f 133//133 27//27 136//136
f 27//27 134//134 136//136
f 134//134 27//27 21//21
f 31//31 21//21 27//27
f 28//28 151//151 33//33
f 28//28 140//140 151//151
f 28//28 33//33 32//32
f 140//140 28//28 133//133
f 36//36 35//35 41//41
f 35//35 38//38 34//34
f 40//40 146//146 35//35
f 35//35 34//34 40//40
f 45//45 37//37 114//114
f 114//114 6//6 45//45
f 36//36 114//114 37//37
f 37//37 38//38 35//35
f 36//36 37//37 35//35
f 44//44 38//38 37//37
f 34//34 39//39 40//40
f 40//40 39//39 147//147
f 43//43 39//39 34//34
f 25//25 147//147 39//39
f 147//147 146//146 40//40
f 145//145 115//115 41//41
f 145//145 41//41 144//144
f 36//36 41//41 116//116
f 115//115 116//116 41//41
f 41//41 35//35 146//146
f 146//146 144//144 41//41
f 44//44 48//48 42//42
f 44//44 42//42 38//38
f 38//38 42//42 43//43
f 42//42 125//125 43//43
f 128//128 39//39 43//43
f 34//34 38//38 43//43
f 128//128 43//43 125//125
f 101//101 44//44 45//45
f 37//37 45//45 44//44
f 44//44 101//101 48//48
f 46//46 130//130 42//42
f 65//65 130//130 46//46
f 125//125 42//42 130//130
f 47//47 125//125 130//130
f 100//100 42//42 48//48
f 107//107 49//49 52//52
f 49//49 107//107 50//50
f 60//60 49//49 50//50
f 56//56 49//49 60//60
f 49//49 139//139 131//131
f 131//131 52//52 49//49
f 50//50 58//58 60//60
f 58//58 50//50 17//17
f 51//51 139//139 49//49
f 151//151 138//138 51//51
f 49//49 56//56 51//51
f 54//54 53//53 56//56
f 55//55 56//56 53//53
f 58//58 54//54 56//56
f 53//53 57//57 55//55
f 151//151 51//51 55//55
f 51//51 56//56 55//55
f 57//57 150//150 55//55
f 54//54 58//58 59//59
f 17//17 59//59 58//58
f 56//56 60//60 58//58
f 152//152 57//57 61//61
f 53//53 61//61 57//57
f 120//120 61//61 54//54
f 54//54 61//61 53//53
f 62//62 64//64 63//63
f 68//68 64//64 62//62
f 62//62 63//63 74//74
f 78//78 63//63 65//65
f 74//74 63//63 78//78
f 76//76 66//66 73//73
f 62//62 66//66 68//68
f 74//74 73//73 62//62
f 66//66 62//62 73//73
f 69//69 126//126 70//70
f 126//126 69//69 135//135
f 64//64 69//69 70//70
f 63//63 70//70 127//127
f 64//64 70//70 63//63
f 69//69 64//64 68//68
f 71//71 75//75 72//72
f 74//74 71//71 72//72
f 72//72 73//73 74//74
f 79//79 75//75 71//71
f 79//79 95//95 75//75
f 73//73 72//72 76//76
f 77//77 72//72 105//105
f 76//76 72//72 77//77
f 46//46 78//78 65//65
f 71//71 78//78 79//79
f 71//71 74//74 78//78
f 75//75 98//98 105//105
f 72//72 75//75 105//105
f 98//98 75//75 95//95
f 82//82 81//81 80//80
f 87//87 83//83 84//84
f 83//83 82//82 84//84
f 81//81 86//86 118//118
f 82//82 86//86 81//81
f 84//84 82//82 80//80
f 84//84 85//85 92//92
f 115//115 145//145 92//92
f 88//88 84//84 92//92
f 85//85 84//84 80//80
f 122//122 82//82 83//83
f 86//86 122//122 121//121
f 122//122 86//86 82//82
f 118//118 113//113 81//81
f 112//112 113//113 118//118
f 118//118 86//86 117//117
f 88//88 89//89 87//87
f 90//90 89//89 88//88
f 90//90 94//94 89//89
f 91//91 83//83 87//87
f 91//91 87//87 89//89
f 122//122 83//83 91//91
f 91//91 89//89 94//94
f 144//144 92//92 145//145
f 84//84 88//88 87//87
f 30//30 90//90 93//93
f 143//143 90//90 88//88
f 96//96 97//97 95//95
f 96//96 100//100 48//48
f 95//95 100//100 96//96
f 96//96 99//99 97//97
f 98//98 95//95 97//97
f 98//98 97//97 13//13
f 4//4 13//13 97//97
f 79//79 46//46 100//100
f 78//78 46//46 79//79
f 46//46 42//42 100//100
f 100//100 95//95 79//79
f 6//6 101//101 45//45
f 101//101 7//7 96//96
f 7//7 99//99 96//96
f 101//101 6//6 7//7
f 48//48 101//101 96//96
f 102//102 104//104 103//103
f 102//102 77//77 104//104
f 105//105 104//104 77//77
f 104//104 105//105 13//13
f 98//98 13//13 105//105
f 103//103 104//104 11//11
f 50//50 106//106 17//17
f 17//17 106//106 16//16
f 16//16 106//106 103//103
f 106//106 107//107 102//102
f 107//107 106//106 50//50
f 102//102 103//103 106//106
f 77//77 107//107 52//52
f 77//77 52//52 76//76
f 107//107 77//77 102//102
f 85//85 108//108 116//116
f 85//85 110//110 108//108
f 109//109 108//108 110//110
f 114//114 108//108 109//109
f 108//108 36//36 116//116
f 80//80 110//110 85//85
f 111//111 110//110 113//113
f 112//112 111//111 113//113
f 109//109 111//111 5//5
f 109//109 110//110 111//111
f 111//111 2//2 5//5
f 113//113 110//110 81//81
f 110//110 80//80 81//81
f 114//114 36//36 108//108
f 109//109 6//6 114//114
f 85//85 115//115 92//92
f 85//85 116//116 115//115
f 59//59 119//119 121//121
f 59//59 121//121 120//120
f 15//15 119//119 123//123
f 117//117 112//112 118//118
f 117//117 10//10 112//112
f 121//121 117//117 86//86
f 117//117 119//119 15//15
f 121//121 119//119 117//117
f 122//122 120//120 121//121
f 152//152 120//120 122//122
f 152//152 61//61 120//120
f 59//59 120//120 54//54
f 123//123 119//119 59//59
f 123//123 59//59 17//17
f 128//128 47//47 124//124
f 124//124 47//47 127//127
f 124//124 127//127 26//26
f 127//127 47//47 129//129
f 129//129 63//63 127//127
f 70//70 126//126 127//127
f 26//26 127//127 22//22
f 128//128 124//124 39//39
f 25//25 39//39 124//124
f 47//47 128//128 125//125
f 65//65 129//129 130//130
f 65//65 63//63 129//129
f 129//129 47//47 130//130
f 69//69 68//68 67//67
f 69//69 67//67 136//136
f 67//67 131//131 132//132
f 67//67 133//133 136//136
f 132//132 133//133 67//67
f 133//133 132//132 140//140
f 69//69 136//136 135//135
f 135//135 136//136 134//134
f 137//137 66//66 52//52
f 52//52 66//66 76//76
f 131//131 67//67 137//137
f 131//131 137//137 52//52
f 66//66 137//137 68//68
f 68//68 137//137 67//67
f 140//140 132//132 138//138
f 132//132 139//139 138//138
f 140//140 138//138 151//151
f 138//138 139//139 51//51
f 131//131 139//139 132//132
f 141//141 142//142 20//20
f 144//144 142//142 141//141
f 141//141 20//20 143//143
f 143//143 23//23 93//93
f 93//93 90//90 143//143
f 93//93 23//23 18//18
f 141//141 143//143 88//88
f 20//20 23//23 143//143
f 144//144 146//146 142//142
f 88//88 92//92 144//144
f 141//141 88//88 144//144
f 20//20 142//142 147//147
f 147//147 25//25 20//20
f 147//147 142//142 146//146
f 149//149 150//150 148//148
f 150//150 57//57 148//148
f 91//91 94//94 148//148
f 149//149 148//148 94//94
f 94//94 30//30 149//149
f 30//30 32//32 149//149
f 30//30 94//94 90//90
f 150//150 33//33 151//151
f 150//150 151//151 55//55
f 149//149 32//32 33//33
f 150//150 149//149 33//33
f 122//122 91//91 152//152
f 148//148 152//152 91//91
f 152//152 148//148 57//57
# 300 faces, 0 coords texture

# End of File
