####
#
# OBJ File Generated by Meshlab
#
####
# Object NoiseSphere.obj
#
# Vertices: 152
# Faces: 300
#
####
vn 0.098765 0.995027 -0.012916
v 0.072861 1.009854 -0.024657
vn 0.288559 0.931916 -0.219698
v 0.292607 0.923554 -0.269948
vn 0.020554 0.954152 -0.298615
v 0.040855 0.971744 -0.282114
vn 0.207381 0.926772 0.313190
v 0.207348 0.936125 0.327519
vn 0.491305 0.855477 -0.163642
v 0.475537 0.872451 -0.164907
vn 0.724862 0.687450 -0.044574
v 0.738368 0.692780 -0.036686
vn 0.612709 0.767247 0.189522
v 0.621869 0.761090 0.210551
vn 0.343531 0.934815 0.090036
v 0.399321 0.921555 0.065520
vn -0.466325 0.882325 -0.063587
v -0.473897 0.882352 -0.061056
vn -0.271747 0.899777 -0.341401
v -0.293364 0.909426 -0.315860
vn -0.433957 0.879676 0.194557
v -0.461604 0.875912 0.210215
vn -0.093477 0.970310 0.223070
v -0.127963 0.979372 0.203207
vn -0.046523 0.858122 0.511334
v -0.065103 0.880839 0.488120
vn -0.248421 0.965725 -0.075252
v -0.212812 0.982880 -0.074368
vn -0.471426 0.841825 -0.262847
v -0.462947 0.846984 -0.273330
vn -0.670556 0.741529 0.022127
v -0.680445 0.746000 0.014486
vn -0.859825 0.506427 -0.065055
v -0.874570 0.500034 -0.103778
vn 0.025199 -0.973305 -0.228128
v 0.071545 -0.981419 -0.228441
vn 0.327053 -0.940753 -0.089556
v 0.336919 -0.942440 -0.092250
vn 0.551527 -0.746416 -0.372400
v 0.538191 -0.779350 -0.366506
vn 0.050043 -0.991475 0.120307
v 0.097014 -0.993462 0.135883
vn 0.269542 -0.927934 0.257460
v 0.257692 -0.941523 0.261961
vn 0.284923 -0.876314 -0.388450
v 0.333410 -0.871937 -0.380428
vn 0.525252 -0.850915 -0.007334
v 0.538695 -0.853436 -0.003984
vn 0.743459 -0.667233 -0.045477
v 0.784572 -0.626705 -0.102547
vn 0.561375 -0.799471 0.213784
v 0.562106 -0.808663 0.215067
vn -0.311355 -0.929121 0.199480
v -0.329419 -0.933188 0.194517
vn -0.566956 -0.823728 0.005800
v -0.565385 -0.833927 0.001056
vn -0.317074 -0.933864 -0.165416
v -0.356559 -0.924407 -0.179039
vn -0.248446 -0.836859 -0.487793
v -0.258382 -0.834561 -0.511711
vn -0.140008 -0.990150 0.000819
v -0.144442 -0.997660 0.013453
vn -0.478065 -0.832269 -0.280681
v -0.478675 -0.835825 -0.285551
vn -0.650863 -0.721464 -0.236361
v -0.653231 -0.731224 -0.221939
vn 0.969956 -0.192701 -0.148498
v 0.975022 -0.157029 -0.187367
vn 0.927842 -0.016489 -0.372610
v 0.927846 0.001437 -0.398969
vn 0.854106 0.294228 -0.428875
v 0.871172 0.295165 -0.424547
vn 0.948081 0.270760 -0.166827
v 0.954134 0.271033 -0.174686
vn 0.999897 -0.005133 -0.013419
v 1.010284 -0.007912 -0.050220
vn 0.903028 -0.429238 -0.017179
v 0.915443 -0.419459 -0.021001
vn 0.907535 -0.284149 -0.309257
v 0.900518 -0.279993 -0.343641
vn 0.768648 -0.019958 -0.639360
v 0.776833 -0.010509 -0.643749
vn 0.887773 0.012338 0.460116
v 0.889379 -0.006660 0.489715
vn 0.957455 -0.228311 0.176508
v 0.955295 -0.236696 0.213848
vn 0.963662 0.218363 0.153862
v 0.984746 0.199563 0.123733
vn 0.892917 0.450049 0.012430
v 0.904897 0.429336 0.042867
vn 0.607616 0.124765 0.784370
v 0.604148 0.154950 0.792659
vn 0.669299 -0.480690 0.566547
v 0.664920 -0.494554 0.581240
vn 0.850995 0.301244 0.430186
v 0.880361 0.244184 0.430564
vn -0.954662 -0.022943 0.296805
v -0.969971 -0.029397 0.263066
vn -0.922154 0.312594 0.227853
v -0.907627 0.342036 0.285420
vn -0.956541 -0.286882 0.052230
v -0.958988 -0.309486 0.068929
vn -0.711741 0.012472 0.702332
v -0.746701 0.012882 0.685481
vn -0.912956 -0.046696 -0.405378
v -0.923440 -0.055154 -0.391013
vn -0.872796 0.200194 -0.445139
v -0.863084 0.217464 -0.472245
vn -0.927123 -0.288629 -0.239033
v -0.943689 -0.269554 -0.223575
vn -0.991887 0.002879 -0.127091
v -0.997504 0.015542 -0.151968
vn -0.805114 -0.253462 -0.536235
v -0.801547 -0.250522 -0.566491
vn -0.946907 0.290456 -0.137846
v -0.958933 0.279916 -0.133673
vn -0.766611 0.464924 -0.442893
v -0.771551 0.472710 -0.444979
vn -0.984812 0.147700 0.091268
v -0.986277 0.152149 0.105829
vn -0.781455 0.018320 -0.623692
v -0.773733 0.041935 -0.640861
vn -0.054092 -0.220630 0.973857
v -0.016854 -0.213365 0.982892
vn 0.259566 -0.311305 0.914174
v 0.249905 -0.312658 0.931393
vn 0.003882 -0.459988 0.887917
v 0.017819 -0.468961 0.895593
vn 0.471146 -0.124589 0.873212
v 0.450417 -0.148429 0.889569
vn -0.404329 -0.164583 0.899684
v -0.426472 -0.221682 0.889193
vn -0.537775 -0.543341 0.644654
v -0.575752 -0.506943 0.661797
vn -0.305469 -0.413273 0.857843
v -0.323144 -0.411901 0.861969
vn -0.145654 -0.653075 0.743154
v -0.123137 -0.641913 0.770930
vn 0.182164 -0.644554 0.742541
v 0.195464 -0.677545 0.722159
vn 0.153079 0.274081 0.949445
v 0.176824 0.243086 0.962511
vn -0.152498 0.335030 0.929785
v -0.170315 0.371492 0.925303
vn -0.176581 0.006274 0.984266
v -0.194208 -0.015231 0.998192
vn 0.075236 0.047957 0.996012
v 0.056560 0.083681 0.996847
vn 0.104208 0.515880 0.850299
v 0.058151 0.528332 0.856947
vn -0.426165 0.131996 0.894964
v -0.389283 0.156090 0.920773
vn -0.508044 0.386813 0.769589
v -0.487592 0.381010 0.797395
vn 0.320674 0.069743 0.944619
v 0.326385 0.099314 0.948507
vn 0.412326 0.358339 0.837604
v 0.430161 0.370861 0.832582
vn 0.244926 0.430915 -0.868518
v 0.263442 0.479414 -0.850884
vn 0.062965 0.549450 -0.833151
v 0.047802 0.527443 -0.867343
vn -0.061852 0.289302 -0.955238
v -0.027406 0.267672 -0.971727
vn -0.197303 0.061175 -0.978432
v -0.196073 0.076424 -0.985932
vn 0.141016 0.107183 -0.984188
v 0.144963 0.144017 -0.987997
vn 0.472040 0.345476 -0.811064
v 0.449100 0.351668 -0.833036
vn -0.260217 0.457183 -0.850453
v -0.261535 0.447514 -0.861524
vn -0.094499 -0.154576 -0.983451
v -0.119196 -0.164939 -0.989155
vn 0.200923 -0.337002 -0.919815
v 0.211644 -0.316190 -0.941949
vn -0.156831 -0.414034 -0.896649
v -0.161158 -0.413028 -0.903860
vn -0.018477 -0.644926 -0.764022
v 0.002821 -0.643441 -0.783203
vn -0.398650 -0.237925 -0.885703
v -0.419219 -0.236077 -0.888540
vn 0.397848 -0.027630 -0.917035
v 0.370289 -0.047928 -0.943201
vn 0.051927 -0.850365 -0.523626
v -0.007720 -0.862045 -0.523948
vn -0.347109 -0.576172 -0.739960
v -0.364355 -0.582704 -0.735348
vn 0.425747 0.550345 0.718234
v 0.479211 0.554522 0.697056
vn 0.650176 0.589357 0.479510
v 0.649864 0.591908 0.497579
vn 0.327321 0.770260 0.547321
v 0.345568 0.763654 0.570594
vn 0.095190 0.701465 0.706318
v 0.078338 0.726839 0.701369
vn 0.474129 0.809703 0.345807
v 0.472388 0.799856 0.382092
vn 0.689501 0.321636 0.648952
v 0.694682 0.332555 0.647398
vn 0.817597 0.515787 0.255927
v 0.803163 0.536727 0.289723
vn -0.650584 0.504997 0.567202
v -0.674132 0.489701 0.564633
vn -0.618253 0.695560 0.366005
v -0.601842 0.705666 0.397816
vn -0.387683 0.746560 0.540694
v -0.375106 0.753307 0.570713
vn -0.207039 0.628140 0.750050
v -0.245449 0.627323 0.751311
vn -0.791373 0.531616 0.301850
v -0.798040 0.533448 0.309251
vn -0.801436 0.256067 0.540491
v -0.810826 0.221365 0.566023
vn 0.646904 0.534940 -0.543466
v 0.647253 0.551448 -0.540134
vn 0.548765 0.745980 -0.377321
v 0.526055 0.765464 -0.386464
vn 0.379820 0.644872 -0.663232
v 0.393173 0.656394 -0.654444
vn 0.278692 0.840605 -0.464450
v 0.273024 0.836623 -0.490813
vn -0.059956 0.840095 -0.539116
v -0.087674 0.845503 -0.546336
vn 0.144248 0.729840 -0.668226
v 0.178722 0.738191 -0.657211
vn 0.795801 0.545358 -0.263222
v 0.787801 0.565666 -0.280661
vn 0.603942 0.129520 -0.786434
v 0.628735 0.133211 -0.778582
vn 0.722818 0.298809 -0.623095
v 0.770185 0.306045 -0.578260
vn -0.330170 0.733132 -0.594564
v -0.315078 0.733807 -0.614752
vn -0.109698 0.669576 -0.734598
v -0.109681 0.660902 -0.752490
vn -0.548927 0.697460 -0.460683
v -0.531602 0.724757 -0.453497
vn -0.661403 0.218748 -0.717423
v -0.650326 0.223737 -0.741059
vn -0.504307 0.487702 -0.712616
v -0.497430 0.497253 -0.726384
vn -0.412957 0.170942 -0.894564
v -0.438581 0.158089 -0.890480
vn -0.689885 0.679921 -0.248529
v -0.719038 0.666924 -0.227337
vn 0.705454 -0.655748 0.268941
v 0.699443 -0.670972 0.286876
vn 0.837135 -0.284400 0.467248
v 0.855819 -0.293466 0.446773
vn 0.091775 -0.834613 0.543138
v 0.115962 -0.856180 0.516367
vn 0.412855 -0.704073 0.577782
v 0.392816 -0.732884 0.581869
vn 0.829671 -0.473179 0.296221
v 0.815821 -0.500126 0.326968
vn 0.495256 -0.397001 0.772730
v 0.511043 -0.394569 0.774205
vn 0.691537 -0.166442 0.702903
v 0.697765 -0.131305 0.717311
vn -0.805245 -0.270195 0.527803
v -0.812840 -0.301975 0.516089
vn -0.724254 -0.558478 0.404424
v -0.706721 -0.577819 0.432732
vn -0.531249 -0.769345 0.354799
v -0.512121 -0.788337 0.355326
vn -0.109803 -0.918880 0.378949
v -0.154094 -0.924572 0.372393
vn -0.122026 -0.795759 0.593192
v -0.138020 -0.780828 0.617314
vn -0.354388 -0.764351 0.538681
v -0.383369 -0.742751 0.567979
vn -0.596202 -0.277687 0.753281
v -0.604523 -0.270101 0.767686
vn -0.835840 -0.515328 0.189234
v -0.832984 -0.538088 0.172471
vn -0.894730 -0.318379 0.313198
v -0.915707 -0.288914 0.312710
vn -0.694113 -0.695772 0.184688
v -0.707951 -0.686103 0.202891
vn 0.462783 -0.524258 -0.714832
v 0.456251 -0.488788 -0.754315
vn 0.656492 -0.499769 -0.565021
v 0.670192 -0.483874 -0.575240
vn 0.294463 -0.691568 -0.659564
v 0.328957 -0.694571 -0.649857
vn 0.575039 -0.277041 -0.769791
v 0.575715 -0.308758 -0.765220
vn 0.577572 -0.088658 -0.811511
v 0.535377 -0.073588 -0.846271
vn 0.802361 -0.287621 -0.522964
v 0.807995 -0.314736 -0.512941
vn 0.805360 -0.507236 -0.306769
v 0.816586 -0.531754 -0.270442
vn -0.596245 -0.466514 -0.653343
v -0.612379 -0.489619 -0.635364
vn -0.526222 -0.698077 -0.485570
v -0.498718 -0.717725 -0.507015
vn -0.765202 -0.527308 -0.369341
v -0.773941 -0.531649 -0.365076
vn -0.811220 -0.581266 -0.063653
v -0.822807 -0.581518 -0.059457
vn -0.612661 -0.134099 -0.778887
v -0.607147 -0.188938 -0.785582
# 152 vertices, 0 vertices normals

f 2//2 1//1 8//8
f 99//99 8//8 4//4
f 2//2 8//8 5//5
f 111//111 3//3 2//2
f 112//112 3//3 111//111
f 3//3 1//1 2//2
f 99//99 4//4 97//97
f 4//4 8//8 12//12
f 1//1 12//12 8//8
f 6//6 109//109 5//5
f 99//99 7//7 8//8
f 8//8 7//7 5//5
f 5//5 7//7 6//6
f 9//9 11//11 14//14
f 1//1 14//14 12//12
f 11//11 12//12 14//14
f 14//14 15//15 9//9
f 16//16 9//9 15//15
f 15//15 14//14 10//10
f 12//12 104//104 13//13
f 13//13 4//4 12//12
f 12//12 11//11 104//104
f 3//3 10//10 14//14
f 112//112 10//10 3//3
f 15//15 10//10 117//117
f 3//3 14//14 1//1
f 16//16 123//123 17//17
f 16//16 11//11 9//9
f 103//103 11//11 16//16
f 15//15 123//123 16//16
f 19//19 24//24 22//22
f 19//19 22//22 21//21
f 21//21 18//18 19//19
f 19//19 23//23 20//20
f 19//19 20//20 24//24
f 18//18 23//23 19//19
f 26//26 22//22 24//24
f 134//134 22//22 126//126
f 134//134 21//21 22//22
f 126//126 22//22 127//127
f 18//18 21//21 31//31
f 26//26 25//25 124//124
f 24//24 25//25 26//26
f 25//25 24//24 20//20
f 29//29 31//31 27//27
f 27//27 28//28 29//29
f 28//28 27//27 133//133
f 29//29 28//28 32//32
f 93//93 18//18 30//30
f 30//30 18//18 29//29
f 31//31 29//29 18//18
f 30//30 29//29 32//32
f 135//135 134//134 126//126
f 133//133 27//27 136//136
f 27//27 134//134 136//136
f 134//134 27//27 21//21
f 31//31 21//21 27//27
f 28//28 151//151 33//33
f 28//28 140//140 151//151
f 28//28 33//33 32//32
f 140//140 28//28 133//133
f 36//36 35//35 41//41
f 35//35 38//38 34//34
f 40//40 146//146 35//35
f 35//35 34//34 40//40
f 45//45 37//37 114//114
f 114//114 6//6 45//45
f 36//36 114//114 37//37
f 37//37 38//38 35//35
f 36//36 37//37 35//35
f 44//44 38//38 37//37
f 34//34 39//39 40//40
f 40//40 39//39 147//147
f 43//43 39//39 34//34
f 25//25 147//147 39//39
f 147//147 146//146 40//40
f 145//145 115//115 41//41
f 145//145 41//41 144//144
f 36//36 41//41 116//116
f 115//115 116//116 41//41
f 41//41 35//35 146//146
f 146//146 144//144 41//41
f 44//44 48//48 42//42
f 44//44 42//42 38//38
f 38//38 42//42 43//43
f 42//42 125//125 43//43
f 128//128 39//39 43//43
f 34//34 38//38 43//43
f 128//128 43//43 125//125
f 101//101 44//44 45//45
f 37//37 45//45 44//44
f 44//44 101//101 48//48
f 46//46 130//130 42//42
f 65//65 130//130 46//46
f 125//125 42//42 130//130
f 47//47 125//125 130//130
f 100//100 42//42 48//48
f 107//107 49//49 52//52
f 49//49 107//107 50//50
f 60//60 49//49 50//50
f 56//56 49//49 60//60
f 49//49 139//139 131//131
f 131//131 52//52 49//49
f 50//50 58//58 60//60
f 58//58 50//50 17//17
f 51//51 139//139 49//49
f 151//151 138//138 51//51
f 49//49 56//56 51//51
f 54//54 53//53 56//56
f 55//55 56//56 53//53
f 58//58 54//54 56//56
f 53//53 57//57 55//55
f 151//151 51//51 55//55
f 51//51 56//56 55//55
f 57//57 150//150 55//55
f 54//54 58//58 59//59
f 17//17 59//59 58//58
f 56//56 60//60 58//58
f 152//152 57//57 61//61
f 53//53 61//61 57//57
f 120//120 61//61 54//54
f 54//54 61//61 53//53
f 62//62 64//64 63//63
f 68//68 64//64 62//62
f 62//62 63//63 74//74
f 78//78 63//63 65//65
f 74//74 63//63 78//78
f 76//76 66//66 73//73
f 62//62 66//66 68//68
f 74//74 73//73 62//62
f 66//66 62//62 73//73
f 69//69 126//126 70//70
f 126//126 69//69 135//135
f 64//64 69//69 70//70
f 63//63 70//70 127//127
f 64//64 70//70 63//63
f 69//69 64//64 68//68
f 71//71 75//75 72//72
f 74//74 71//71 72//72
f 72//72 73//73 74//74
f 79//79 75//75 71//71
f 79//79 95//95 75//75
f 73//73 72//72 76//76
f 77//77 72//72 105//105
f 76//76 72//72 77//77
f 46//46 78//78 65//65
f 71//71 78//78 79//79
f 71//71 74//74 78//78
f 75//75 98//98 105//105
f 72//72 75//75 105//105
f 98//98 75//75 95//95
f 82//82 81//81 80//80
f 87//87 83//83 84//84
f 83//83 82//82 84//84
f 81//81 86//86 118//118
f 82//82 86//86 81//81
f 84//84 82//82 80//80
f 84//84 85//85 92//92
f 115//115 145//145 92//92
f 88//88 84//84 92//92
f 85//85 84//84 80//80
f 122//122 82//82 83//83
f 86//86 122//122 121//121
f 122//122 86//86 82//82
f 118//118 113//113 81//81
f 112//112 113//113 118//118
f 118//118 86//86 117//117
f 88//88 89//89 87//87
f 90//90 89//89 88//88
f 90//90 94//94 89//89
f 91//91 83//83 87//87
f 91//91 87//87 89//89
f 122//122 83//83 91//91
f 91//91 89//89 94//94
f 144//144 92//92 145//145
f 84//84 88//88 87//87
f 30//30 90//90 93//93
f 143//143 90//90 88//88
f 96//96 97//97 95//95
f 96//96 100//100 48//48
f 95//95 100//100 96//96
f 96//96 99//99 97//97
f 98//98 95//95 97//97
f 98//98 97//97 13//13
f 4//4 13//13 97//97
f 79//79 46//46 100//100
f 78//78 46//46 79//79
f 46//46 42//42 100//100
f 100//100 95//95 79//79
f 6//6 101//101 45//45
f 101//101 7//7 96//96
f 7//7 99//99 96//96
f 101//101 6//6 7//7
f 48//48 101//101 96//96
f 102//102 104//104 103//103
f 102//102 77//77 104//104
f 105//105 104//104 77//77
f 104//104 105//105 13//13
f 98//98 13//13 105//105
f 103//103 104//104 11//11
f 50//50 106//106 17//17
f 17//17 106//106 16//16
f 16//16 106//106 103//103
f 106//106 107//107 102//102
f 107//107 106//106 50//50
f 102//102 103//103 106//106
f 77//77 107//107 52//52
f 77//77 52//52 76//76
f 107//107 77//77 102//102
f 85//85 108//108 116//116
f 85//85 110//110 108//108
f 109//109 108//108 110//110
f 114//114 108//108 109//109
f 108//108 36//36 116//116
f 80//80 110//110 85//85
f 111//111 110//110 113//113
f 112//112 111//111 113//113
f 109//109 111//111 5//5
f 109//109 110//110 111//111
f 111//111 2//2 5//5
f 113//113 110//110 81//81
f 110//110 80//80 81//81
f 114//114 36//36 108//108
f 109//109 6//6 114//114
f 85//85 115//115 92//92
f 85//85 116//116 115//115
f 59//59 119//119 121//121
f 59//59 121//121 120//120
f 15//15 119//119 123//123
f 117//117 112//112 118//118
f 117//117 10//10 112//112
f 121//121 117//117 86//86
f 117//117 119//119 15//15
f 121//121 119//119 117//117
f 122//122 120//120 121//121
f 152//152 120//120 122//122
f 152//152 61//61 120//120
f 59//59 120//120 54//54
f 123//123 119//119 59//59
f 123//123 59//59 17//17
f 128//128 47//47 124//124
f 124//124 47//47 127//127
f 124//124 127//127 26//26
f 127//127 47//47 129//129
f 129//129 63//63 127//127
f 70//70 126//126 127//127
f 26//26 127//127 22//22
f 128//128 124//124 39//39
f 25//25 39//39 124//124
f 47//47 128//128 125//125
f 65//65 129//129 130//130
f 65//65 63//63 129//129
f 129//129 47//47 130//130
f 69//69 68//68 67//67
f 69//69 67//67 136//136
f 67//67 131//131 132//132
f 67//67 133//133 136//136
f 132//132 133//133 67//67
f 133//133 132//132 140//140
f 69//69 136//136 135//135
f 135//135 136//136 134//134
f 137//137 66//66 52//52
f 52//52 66//66 76//76
f 131//131 67//67 137//137
f 131//131 137//137 52//52
f 66//66 137//137 68//68
f 68//68 137//137 67//67
f 140//140 132//132 138//138
f 132//132 139//139 138//138
f 140//140 138//138 151//151
f 138//138 139//139 51//51
f 131//131 139//139 132//132
f 141//141 142//142 20//20
f 144//144 142//142 141//141
f 141//141 20//20 143//143
f 143//143 23//23 93//93
f 93//93 90//90 143//143
f 93//93 23//23 18//18
f 141//141 143//143 88//88
f 20//20 23//23 143//143
f 144//144 146//146 142//142
f 88//88 92//92 144//144
f 141//141 88//88 144//144
f 20//20 142//142 147//147
f 147//147 25//25 20//20
f 147//147 142//142 146//146
f 149//149 150//150 148//148
f 150//150 57//57 148//148
f 91//91 94//94 148//148
f 149//149 148//148 94//94
f 94//94 30//30 149//149
f 30//30 32//32 149//149
f 30//30 94//94 90//90
f 150//150 33//33 151//151
f 150//150 151//151 55//55
f 149//149 32//32 33//33
f 150//150 149//149 33//33
f 122//122 91//91 152//152
f 148//148 152//152 91//91
f 152//152 148//148 57//57
# 300 faces, 0 coords texture

# End of File
